<?xml version="1.0" encoding="UTF-8"?>
<svg version="1.1" xmlns="http://www.w3.org/2000/svg" width="721" height="721">
<path d="M0 0 C237.93 0 475.86 0 721 0 C721 237.93 721 475.86 721 721 C483.07 721 245.14 721 0 721 C0 483.07 0 245.14 0 0 Z " fill="#FEFEFE" transform="translate(0,0)"/>
<path d="M0 0 C4.17634807 1.63922195 6.97206457 4.69704196 10.06759262 7.82149696 C10.6749574 8.42655406 11.28232219 9.03161115 11.90809196 9.65500331 C13.95488484 11.69647592 15.99442914 13.74504158 18.03411865 15.79360962 C19.50969756 17.26831688 20.98571569 18.74258477 22.46213651 20.21644914 C26.52797289 24.27780004 30.58752425 28.34538355 34.64610982 32.41397858 C39.02011365 36.79659732 43.39987298 41.17345746 47.77894592 45.55101013 C55.36852757 53.13954169 62.95446362 60.7316977 70.53786469 68.32640457 C78.49244188 76.29281056 86.44907904 84.25714975 94.40848541 92.21873093 C94.90313625 92.71351925 95.3977871 93.20830757 95.90742736 93.71808948 C98.41945819 96.23079696 100.93152596 98.7434675 103.44360796 101.25612383 C121.2426118 119.05932994 139.03697292 136.86716982 156.82861328 154.67773438 C174.11435248 171.98183845 191.4021883 189.28384345 208.69287109 206.58300781 C209.22572295 207.11612272 209.75857481 207.64923763 210.30757369 208.19850753 C215.65863009 213.55220094 221.00972918 218.90585167 226.36085957 224.25947113 C237.2619997 235.16568387 248.1628548 246.07218148 259.0635376 256.97885132 C259.56474798 257.48033628 260.06595837 257.98182125 260.58235695 258.49850273 C294.05967956 291.99423069 327.530336 325.49661957 361 359 C357.10208629 363.66279267 353.05555232 368.08804496 348.7487812 372.37426662 C347.84440274 373.28037586 347.84440274 373.28037586 346.921754 374.20479032 C344.90927221 376.21991021 342.89325636 378.23145571 340.87722778 380.24302673 C339.41578148 381.70490931 337.95455504 383.1670117 336.4935292 384.62931448 C332.48457387 388.64050369 328.47251074 392.64857173 324.4599309 396.65613472 C320.13098709 400.98075834 315.80493537 405.30827329 311.47853088 409.63543701 C303.98447428 417.13001785 296.48860725 424.62278347 288.99145889 432.11427116 C281.12998375 439.9698258 273.26954665 447.82641675 265.41048813 455.68438911 C264.92152015 456.17328835 264.43255218 456.66218759 263.92876699 457.16590195 C261.4454702 459.6488604 258.96219188 462.13183733 256.47892068 464.61482138 C238.89777797 482.19386465 221.31431878 499.77058916 203.72949219 517.34594727 C186.64791312 534.41833943 169.56738661 551.49178353 152.48828125 568.56665039 C151.96166867 569.09313144 151.43505609 569.6196125 150.89248555 570.16204752 C145.60394364 575.4492709 140.31542309 580.73651563 135.02691819 586.02377603 C124.25398029 596.79417783 113.48089984 607.56443703 102.70773315 618.33460999 C102.2124193 618.82978655 101.71710545 619.32496311 101.20678209 619.83514502 C68.14024311 652.89248602 35.07037092 685.94649249 2 719 C-2.17634807 717.36077805 -4.97206457 714.30295804 -8.06759262 711.17850304 C-8.6749574 710.57344594 -9.28232219 709.96838885 -9.90809196 709.34499669 C-11.95488484 707.30352408 -13.99442914 705.25495842 -16.03411865 703.20639038 C-17.50969756 701.73168312 -18.98571569 700.25741523 -20.46213651 698.78355086 C-24.52797289 694.72219996 -28.58752425 690.65461645 -32.64610982 686.58602142 C-37.02011365 682.20340268 -41.39987298 677.82654254 -45.77894592 673.44898987 C-53.36852757 665.86045831 -60.95446362 658.2683023 -68.53786469 650.67359543 C-76.49244188 642.70718944 -84.44907904 634.74285025 -92.40848541 626.78126907 C-92.90313625 626.28648075 -93.3977871 625.79169243 -93.90742736 625.28191052 C-96.41945819 622.76920304 -98.93152596 620.2565325 -101.44360796 617.74387617 C-119.2426118 599.94067006 -137.03697292 582.13283018 -154.82861328 564.32226562 C-172.11435248 547.01816155 -189.4021883 529.71615655 -206.69287109 512.41699219 C-207.22572295 511.88387728 -207.75857481 511.35076237 -208.30757369 510.80149247 C-213.65863009 505.44779906 -219.00972918 500.09414833 -224.36085957 494.74052887 C-235.2619997 483.83431613 -246.1628548 472.92781852 -257.0635376 462.02114868 C-257.56474798 461.51966372 -258.06595837 461.01817875 -258.58235695 460.50149727 C-292.05967956 427.00576931 -325.530336 393.50338043 -359 360 C-355.10208629 355.33720733 -351.05555232 350.91195504 -346.7487812 346.62573338 C-346.14586223 346.02166055 -345.54294325 345.41758773 -344.921754 344.79520968 C-342.90927221 342.78008979 -340.89325636 340.76854429 -338.87722778 338.75697327 C-337.41578148 337.29509069 -335.95455504 335.8329883 -334.4935292 334.37068552 C-330.48457387 330.35949631 -326.47251074 326.35142827 -322.4599309 322.34386528 C-318.13098709 318.01924166 -313.80493537 313.69172671 -309.47853088 309.36456299 C-301.98447428 301.86998215 -294.48860725 294.37721653 -286.99145889 286.88572884 C-279.12998375 279.0301742 -271.26954665 271.17358325 -263.41048813 263.31561089 C-262.92152015 262.82671165 -262.43255218 262.33781241 -261.92876699 261.83409805 C-259.4454702 259.3511396 -256.96219188 256.86816267 -254.47892068 254.38517862 C-236.89777797 236.80613535 -219.31431878 219.22941084 -201.72949219 201.65405273 C-184.64791312 184.58166057 -167.56738661 167.50821647 -150.48828125 150.43334961 C-149.96166867 149.90686856 -149.43505609 149.3803875 -148.89248555 148.83795248 C-143.60394364 143.5507291 -138.31542309 138.26348437 -133.02691819 132.97622397 C-122.25398029 122.20582217 -111.48089984 111.43556297 -100.70773315 100.66539001 C-100.2124193 100.17021345 -99.71710545 99.67503689 -99.20678209 99.16485498 C-66.14024311 66.10751398 -33.07037092 33.05350751 0 0 Z " fill="#FEFDFD" transform="translate(359,1)"/>
<path d="M0 0 C4.17634807 1.63922195 6.97206457 4.69704196 10.06759262 7.82149696 C10.6749574 8.42655406 11.28232219 9.03161115 11.90809196 9.65500331 C13.95488484 11.69647592 15.99442914 13.74504158 18.03411865 15.79360962 C19.50969756 17.26831688 20.98571569 18.74258477 22.46213651 20.21644914 C26.52797289 24.27780004 30.58752425 28.34538355 34.64610982 32.41397858 C39.02011365 36.79659732 43.39987298 41.17345746 47.77894592 45.55101013 C55.36852757 53.13954169 62.95446362 60.7316977 70.53786469 68.32640457 C78.49244188 76.29281056 86.44907904 84.25714975 94.40848541 92.21873093 C94.90313625 92.71351925 95.3977871 93.20830757 95.90742736 93.71808948 C98.41945819 96.23079696 100.93152596 98.7434675 103.44360796 101.25612383 C121.2426118 119.05932994 139.03697292 136.86716982 156.82861328 154.67773438 C174.11435248 171.98183845 191.4021883 189.28384345 208.69287109 206.58300781 C209.22572295 207.11612272 209.75857481 207.64923763 210.30757369 208.19850753 C215.65863009 213.55220094 221.00972918 218.90585167 226.36085957 224.25947113 C237.2619997 235.16568387 248.1628548 246.07218148 259.0635376 256.97885132 C259.56474798 257.48033628 260.06595837 257.98182125 260.58235695 258.49850273 C294.05967956 291.99423069 327.530336 325.49661957 361 359 C357.10208629 363.66279267 353.05555232 368.08804496 348.7487812 372.37426662 C347.84440274 373.28037586 347.84440274 373.28037586 346.921754 374.20479032 C344.90927221 376.21991021 342.89325636 378.23145571 340.87722778 380.24302673 C339.41578148 381.70490931 337.95455504 383.1670117 336.4935292 384.62931448 C332.48457387 388.64050369 328.47251074 392.64857173 324.4599309 396.65613472 C320.13098709 400.98075834 315.80493537 405.30827329 311.47853088 409.63543701 C303.98447428 417.13001785 296.48860725 424.62278347 288.99145889 432.11427116 C281.12998375 439.9698258 273.26954665 447.82641675 265.41048813 455.68438911 C264.92152015 456.17328835 264.43255218 456.66218759 263.92876699 457.16590195 C261.4454702 459.6488604 258.96219188 462.13183733 256.47892068 464.61482138 C238.89777797 482.19386465 221.31431878 499.77058916 203.72949219 517.34594727 C186.64791312 534.41833943 169.56738661 551.49178353 152.48828125 568.56665039 C151.96166867 569.09313144 151.43505609 569.6196125 150.89248555 570.16204752 C145.60394364 575.4492709 140.31542309 580.73651563 135.02691819 586.02377603 C124.25398029 596.79417783 113.48089984 607.56443703 102.70773315 618.33460999 C102.2124193 618.82978655 101.71710545 619.32496311 101.20678209 619.83514502 C68.14024311 652.89248602 35.07037092 685.94649249 2 719 C-2.17634807 717.36077805 -4.97206457 714.30295804 -8.06759262 711.17850304 C-8.6749574 710.57344594 -9.28232219 709.96838885 -9.90809196 709.34499669 C-11.95488484 707.30352408 -13.99442914 705.25495842 -16.03411865 703.20639038 C-17.50969756 701.73168312 -18.98571569 700.25741523 -20.46213651 698.78355086 C-24.52797289 694.72219996 -28.58752425 690.65461645 -32.64610982 686.58602142 C-37.02011365 682.20340268 -41.39987298 677.82654254 -45.77894592 673.44898987 C-53.36852757 665.86045831 -60.95446362 658.2683023 -68.53786469 650.67359543 C-76.49244188 642.70718944 -84.44907904 634.74285025 -92.40848541 626.78126907 C-92.90313625 626.28648075 -93.3977871 625.79169243 -93.90742736 625.28191052 C-96.41945819 622.76920304 -98.93152596 620.2565325 -101.44360796 617.74387617 C-119.2426118 599.94067006 -137.03697292 582.13283018 -154.82861328 564.32226562 C-172.11435248 547.01816155 -189.4021883 529.71615655 -206.69287109 512.41699219 C-207.22572295 511.88387728 -207.75857481 511.35076237 -208.30757369 510.80149247 C-213.65863009 505.44779906 -219.00972918 500.09414833 -224.36085957 494.74052887 C-235.2619997 483.83431613 -246.1628548 472.92781852 -257.0635376 462.02114868 C-257.56474798 461.51966372 -258.06595837 461.01817875 -258.58235695 460.50149727 C-292.05967956 427.00576931 -325.530336 393.50338043 -359 360 C-355.10208629 355.33720733 -351.05555232 350.91195504 -346.7487812 346.62573338 C-346.14586223 346.02166055 -345.54294325 345.41758773 -344.921754 344.79520968 C-342.90927221 342.78008979 -340.89325636 340.76854429 -338.87722778 338.75697327 C-337.41578148 337.29509069 -335.95455504 335.8329883 -334.4935292 334.37068552 C-330.48457387 330.35949631 -326.47251074 326.35142827 -322.4599309 322.34386528 C-318.13098709 318.01924166 -313.80493537 313.69172671 -309.47853088 309.36456299 C-301.98447428 301.86998215 -294.48860725 294.37721653 -286.99145889 286.88572884 C-279.12998375 279.0301742 -271.26954665 271.17358325 -263.41048813 263.31561089 C-262.92152015 262.82671165 -262.43255218 262.33781241 -261.92876699 261.83409805 C-259.4454702 259.3511396 -256.96219188 256.86816267 -254.47892068 254.38517862 C-236.89777797 236.80613535 -219.31431878 219.22941084 -201.72949219 201.65405273 C-184.64791312 184.58166057 -167.56738661 167.50821647 -150.48828125 150.43334961 C-149.96166867 149.90686856 -149.43505609 149.3803875 -148.89248555 148.83795248 C-143.60394364 143.5507291 -138.31542309 138.26348437 -133.02691819 132.97622397 C-122.25398029 122.20582217 -111.48089984 111.43556297 -100.70773315 100.66539001 C-100.2124193 100.17021345 -99.71710545 99.67503689 -99.20678209 99.16485498 C-66.14024311 66.10751398 -33.07037092 33.05350751 0 0 Z M-2.1784178 58.93002081 C-3.09202492 59.84438736 -4.00563203 60.75875392 -4.94692421 61.70082855 C-5.71268646 62.46312927 -5.71268646 62.46312927 -6.49391866 63.24083 C-8.22329003 64.96485857 -9.9453678 66.69599859 -11.66763306 68.42712402 C-12.91049684 69.66911662 -14.15379963 70.91067003 -15.39750612 72.15181875 C-18.82937937 75.57919749 -22.25494771 79.01281925 -25.67957115 82.44743991 C-29.36785693 86.14432774 -33.06188456 89.83546997 -36.75523376 93.52729797 C-43.15857578 99.92958908 -49.55823312 106.33554454 -55.95543289 112.74397278 C-65.20482146 122.00958549 -74.45969932 131.26969904 -83.71594505 140.52846092 C-98.73186042 155.54875825 -113.74330002 170.57352052 -128.75195312 185.60107422 C-143.33522784 200.20269478 -157.92059259 214.80222237 -172.50878906 229.39892578 C-173.40734928 230.29801145 -174.30590951 231.19709712 -175.23169883 232.12342781 C-179.73932863 236.63366761 -184.24699973 241.14386614 -188.75469136 245.65404415 C-226.17619847 283.09629936 -263.59045418 320.54579421 -301 358 C-299.41683481 361.83646037 -296.9858635 364.26266516 -294.06869316 367.1774025 C-293.55987337 367.68852998 -293.05105357 368.19965746 -292.526815 368.72627366 C-290.81270761 370.44569429 -289.09153226 372.15786115 -287.37033081 373.87017822 C-286.13073721 375.11064362 -284.89158305 376.35154828 -283.65283215 377.59285522 C-280.24136766 381.00880237 -276.82368034 384.41846422 -273.40497184 387.8271594 C-269.72174411 391.50176817 -266.04427945 395.18213635 -262.36611938 398.86181641 C-255.99060054 405.23838509 -249.61142353 411.61127519 -243.22976303 417.98169708 C-234.00290414 427.1923173 -224.78155821 436.40844057 -215.56155814 445.62592599 C-200.60337799 460.57972648 -185.64073487 475.52905311 -170.67529297 490.47558594 C-156.13584393 504.99668322 -141.59849227 519.51987492 -127.06396484 534.04589844 C-125.720605 535.38847011 -125.720605 535.38847011 -124.35010658 536.75816444 C-119.8573921 541.24826888 -115.36471891 545.73841464 -110.87206626 550.22858095 C-73.58777779 587.49212845 -36.29624926 624.74842406 1 662 C7.77890632 656.43728096 13.89434334 650.24230441 20.0790863 644.04116821 C21.30585535 642.81483561 22.53284427 641.58872292 23.76003319 640.36281049 C27.12133162 637.00374281 30.47951286 633.64157394 33.83718431 630.27888131 C37.46241263 626.64932828 41.0905369 623.02267208 44.7183075 619.3956604 C50.99987555 613.1146163 57.27961234 606.83174613 63.55810356 600.5476265 C72.63571412 591.46188353 81.71608983 582.37890822 90.79713941 573.29660265 C105.53102351 558.56053078 120.26267377 543.82222784 134.99291992 529.08251953 C149.30066649 514.76559176 163.6094646 500.44971628 177.91967773 486.13525391 C178.80198936 485.25267956 179.68430099 484.37010521 180.59334933 483.46078618 C185.01972277 479.03310769 189.44611688 474.60544987 193.87252128 470.17780232 C230.58488704 433.45507249 267.29362789 396.72872075 304 360 C298.43831687 353.224886 292.24963434 347.10696641 286.05462646 340.9209137 C284.82972312 339.69414054 283.6050357 338.46715175 282.3805449 337.23996681 C279.02534507 333.87866432 275.66704194 330.52047761 272.30819941 327.16281569 C268.68273145 323.53755211 265.06012886 319.90942712 261.43713379 316.2816925 C254.34478535 309.18104713 247.24966922 302.0831736 240.15345022 294.98639656 C234.38916724 289.22163829 228.62567497 283.45609068 222.86273956 277.68998528 C206.53070006 261.34914454 190.19657086 245.01039678 173.85975501 228.6743312 C172.97952218 227.79413833 172.09928936 226.91394546 171.19238281 226.00708008 C170.31107847 225.12581662 169.42977413 224.24455315 168.52176359 223.33658474 C154.21545624 209.03068449 139.91415251 194.71979373 125.61509177 180.40665067 C110.93979916 165.71701889 96.26080642 151.03109366 81.57790971 136.34906238 C73.33159488 128.10308021 65.08684195 119.85554994 56.84606171 111.60403633 C49.83571426 104.58461656 42.82195804 97.56862561 35.80366537 90.55714942 C32.22016507 86.97692994 28.63833194 83.39508182 25.06078339 79.80891418 C21.79117033 76.53150452 18.5170477 73.25867395 15.23914292 69.98955785 C14.04911734 68.80108241 12.86080799 67.61088571 11.67432186 66.41887672 C10.07144195 64.80902608 8.46263516 63.20535233 6.85207748 61.60318851 C5.50932869 60.26011366 5.50932869 60.26011366 4.13945365 58.88990599 C1.21154693 56.30351276 0.74552318 56.33948609 -2.1784178 58.93002081 Z " fill="#EF4135" transform="translate(359,1)"/>
<path d="M0 0 C1.40615724 1.17525689 2.80217571 2.36275688 4.1875 3.5625 C5.27417969 4.43455078 5.27417969 4.43455078 6.3828125 5.32421875 C22.85841737 19.01561862 34.98985054 40.48477064 37.44921875 61.83447266 C40.01913594 95.15059362 27.01308955 140.19836443 5.5 166.09375 C4.74867647 166.93451681 3.9848004 167.7651996 3.1875 168.5625 C3.02943469 170.48728813 2.936365 172.4174921 2.87109375 174.34765625 C2.82919922 175.51748047 2.78730469 176.68730469 2.74414062 177.89257812 C2.70482422 179.12427734 2.66550781 180.35597656 2.625 181.625 C2.56022461 183.47834961 2.56022461 183.47834961 2.49414062 185.36914062 C2.38765802 188.43347335 2.28564576 191.49789073 2.1875 194.5625 C2.74445557 194.70437744 3.30141113 194.84625488 3.87524414 194.99243164 C12.97285622 197.38884588 21.91461106 200.26610354 30.87524414 203.12329102 C33.61464205 203.99669756 36.35507289 204.8667971 39.09570312 205.73632812 C48.14881442 208.61262353 57.19030586 211.51493289 66.1875 214.5625 C65.8575 215.8825 65.5275 217.2025 65.1875 218.5625 C64.56875 218.624375 63.95 218.68625 63.3125 218.75 C60.9707089 219.36081899 60.9707089 219.36081899 60.1875 221.75 C59.8575 222.678125 59.5275 223.60625 59.1875 224.5625 C55.71381579 230.03618421 55.71381579 230.03618421 54.1875 231.5625 C50.75 231.75 50.75 231.75 47.1875 231.5625 C46.5275 230.9025 45.8675 230.2425 45.1875 229.5625 C44.775 230.2225 44.3625 230.8825 43.9375 231.5625 C43.36 232.2225 42.7825 232.8825 42.1875 233.5625 C40.8675 233.5625 39.5475 233.5625 38.1875 233.5625 C38.27 234.635 38.3525 235.7075 38.4375 236.8125 C38.1875 240.5625 38.1875 240.5625 36.625 243 C33.37335417 245.08438835 30.97681649 244.77698961 27.1875 244.5625 C26.8575 244.8925 26.5275 245.2225 26.1875 245.5625 C22.15589809 245.82543056 20.62857266 245.85654844 17.1875 243.5625 C16.1975 243.7275 15.2075 243.8925 14.1875 244.0625 C11.1875 244.5625 11.1875 244.5625 8.1875 242.5625 C8.1875 241.9025 8.1875 241.2425 8.1875 240.5625 C6.5375 240.5625 4.8875 240.5625 3.1875 240.5625 C3.42726563 241.09359375 3.66703125 241.6246875 3.9140625 242.171875 C6.36588765 248.01361492 6.36588765 248.01361492 5.375 251.0625 C4.983125 251.5575 4.59125 252.0525 4.1875 252.5625 C-2.47728873 252.69066901 -2.47728873 252.69066901 -4.9375 251.75 C-5.55625 251.688125 -6.175 251.62625 -6.8125 251.5625 C-9.54176391 253.87506494 -9.54176391 253.87506494 -11.8125 256.5625 C-12.1425 256.8925 -12.4725 257.2225 -12.8125 257.5625 C-19.06304945 257.21524725 -19.06304945 257.21524725 -21.75 254.875 C-23.08440478 251.97070725 -22.87856921 249.7338222 -22.8125 246.5625 C-23.30363281 245.67498047 -23.30363281 245.67498047 -23.8046875 244.76953125 C-25.15236776 241.81821595 -24.96988834 239.47999922 -24.875 236.25 C-24.70611825 229.334757 -24.70611825 229.334757 -25.8125 222.5625 C-27.74847032 221.04955712 -27.74847032 221.04955712 -29.8125 220.5625 C-29.4825 218.9125 -29.1525 217.2625 -28.8125 215.5625 C-26.8325 215.5625 -24.8525 215.5625 -22.8125 215.5625 C-23.1425 214.5725 -23.4725 213.5825 -23.8125 212.5625 C-24.0420082 206.02151639 -24.0420082 206.02151639 -22.8125 203.5625 C-23.4725 203.5625 -24.1325 203.5625 -24.8125 203.5625 C-26.2908226 200.60585481 -25.87282783 197.82020263 -25.8125 194.5625 C-26.8025 194.2325 -27.7925 193.9025 -28.8125 193.5625 C-30.34096661 190.50556678 -30.04492445 187.93265453 -29.8125 184.5625 C-28.3125 182.125 -28.3125 182.125 -26.8125 180.5625 C-27.28816406 180.00433594 -27.76382813 179.44617188 -28.25390625 178.87109375 C-29.97460226 176.32239364 -30.33598128 174.64408032 -30.75 171.625 C-31.52805204 167.13975881 -32.91887643 165.08910373 -35.8125 161.5625 C-36.72939105 158.60271134 -37.26226596 155.60785471 -37.8125 152.5625 C-38.13557983 151.2266451 -38.46570205 149.89239476 -38.8125 148.5625 C-39.8025 148.5625 -40.7925 148.5625 -41.8125 148.5625 C-41.97927282 151.97906024 -41.97927282 151.97906024 -41.8125 155.5625 C-41.1525 156.2225 -40.4925 156.8825 -39.8125 157.5625 C-40.27403846 164.02403846 -40.27403846 164.02403846 -42.8125 166.5625 C-42.86470905 169.03350862 -42.86470905 169.03350862 -42.625 171.8125 C-42.49560157 177.04292094 -42.49560157 177.04292094 -43.91796875 179.375 C-44.37816406 179.849375 -44.83835937 180.32375 -45.3125 180.8125 C-48.1672129 183.39407456 -48.1672129 183.39407456 -48.125 187.1875 C-48.021875 188.30125 -47.91875 189.415 -47.8125 190.5625 C-47.8125 191.8825 -47.8125 193.2025 -47.8125 194.5625 C-45.5025 195.5525 -43.1925 196.5425 -40.8125 197.5625 C-40.8125 199.2125 -40.8125 200.8625 -40.8125 202.5625 C-41.8025 202.8925 -42.7925 203.2225 -43.8125 203.5625 C-43.4825 204.2225 -43.1525 204.8825 -42.8125 205.5625 C-42.39206952 208.6196302 -42.32181494 211.51171898 -42.8125 214.5625 C-45.1875 217.125 -45.1875 217.125 -47.8125 219.5625 C-49.77351704 224.15391969 -49.91772048 227.72716038 -48.8125 232.5625 C-49.4725 233.5525 -50.1325 234.5425 -50.8125 235.5625 C-50.86651381 237.91405656 -50.86651381 237.91405656 -50.625 240.4375 C-50.52343905 244.52383456 -50.58706769 245.26587854 -53.1875 248.6875 C-55.8125 250.5625 -55.8125 250.5625 -57.8125 250.5625 C-58.1425 252.2125 -58.4725 253.8625 -58.8125 255.5625 C-60.4625 255.5625 -62.1125 255.5625 -63.8125 255.5625 C-63.874375 254.77875 -63.93625 253.995 -64 253.1875 C-64.268125 252.32125 -64.53625 251.455 -64.8125 250.5625 C-67.26954762 249.32959799 -67.26954762 249.32959799 -69.8125 248.5625 C-70.1425 247.9025 -70.4725 247.2425 -70.8125 246.5625 C-74.4596027 245.69355942 -78.06947318 245.40654055 -81.8125 245.5625 C-84.56506794 247.41414036 -84.56506794 247.41414036 -86.8125 249.5625 C-91.02458311 250.16422616 -93.03618848 250.03503745 -96.6875 247.8125 C-98.77624181 245.60089103 -99.49401851 244.53499386 -99.8125 241.5625 C-100.575625 241.624375 -101.33875 241.68625 -102.125 241.75 C-104.8125 241.5625 -104.8125 241.5625 -106.625 240.1875 C-107.8125 238.5625 -107.8125 238.5625 -107.8125 236.5625 C-109.029375 236.665625 -110.24625 236.76875 -111.5 236.875 C-115.18927497 236.89465866 -115.71344923 236.64091519 -118.8125 234.1875 C-120.8125 231.5625 -120.8125 231.5625 -120.8125 229.5625 C-121.864375 229.52125 -122.91625 229.48 -124 229.4375 C-128.82933899 228.32912712 -129.71352026 226.28127569 -132.8125 222.5625 C-133.9675 222.3975 -135.1225 222.2325 -136.3125 222.0625 C-140.03929364 221.53010091 -140.46941959 221.31905674 -142.75 218.625 C-144.8125 215.5625 -144.8125 215.5625 -144.8125 213.5625 C-138.90947549 211.35411916 -133.00520258 209.14910085 -127.10009766 206.94628906 C-125.09623582 206.19834385 -123.09264879 205.44966192 -121.08935547 204.70019531 C-91.31458333 193.5625 -91.31458333 193.5625 -86.8125 193.5625 C-86.72162109 192.29019531 -86.72162109 192.29019531 -86.62890625 190.9921875 C-86.54511719 189.81914062 -86.46132813 188.64609375 -86.375 187.4375 C-86.29636719 186.15875 -86.21773438 184.88 -86.13671875 183.5625 C-85.95696189 180.95886379 -85.63942471 178.52628147 -85.20703125 175.9375 C-84.44990685 170.83687246 -83.93150245 167.16487907 -86.47265625 162.54296875 C-88.02576849 160.55296044 -89.62616344 158.59918132 -91.265625 156.6796875 C-112.08537728 132.2329648 -118.73371268 91.62863967 -116.8125 60.5625 C-114.94956641 38.84738183 -105.30836748 19.87302104 -89.5703125 4.875 C-63.73644368 -16.78739425 -27.68740123 -21.07908421 0 0 Z " fill="#010101" transform="translate(401.8125,142.4375)"/>
<path d="M0 0 C7.14775831 -0.68369862 13.20132049 1.77224519 19.875 4.125 C21.57462891 4.69347656 21.57462891 4.69347656 23.30859375 5.2734375 C36.11891224 9.7266189 46.89311653 16.55135292 53 29 C53.81212496 31.71381047 54.15768459 34.23356896 54.2722168 37.05908203 C54.30441818 37.84735382 54.33661957 38.63562561 54.36979675 39.44778442 C54.48169644 43.05467363 54.56285854 46.66144623 54.62475586 50.26953125 C54.66636117 52.16297741 54.72767803 54.05609977 54.80932617 55.94824219 C55.47151086 71.57307025 55.47151086 71.57307025 52.00634766 77.28808594 C49.48257567 79.84134463 46.91912987 81.91697896 44 84 C42.61026793 85.20753634 41.23152794 86.42790944 39.8671875 87.6640625 C38.90377441 88.49019043 38.90377441 88.49019043 37.92089844 89.33300781 C34.5629767 92.24707614 31.35423086 95.31997973 28.125 98.375 C22.95255112 103.24669735 17.7677244 108.0935883 12.43359375 112.7890625 C10.55555986 114.49526985 8.76025661 116.22631969 6.97265625 118.0234375 C6.44768555 118.5380957 5.92271484 119.05275391 5.38183594 119.58300781 C4.36255304 120.58453096 3.35815846 121.60151957 2.37207031 122.63574219 C-0.46652645 125.38814278 -1.72482338 126.00057508 -5.73828125 125.9921875 C-9 125 -9 125 -11 122 C-11.125 119.3125 -11.125 119.3125 -11 117 C-12.216875 117.0825 -13.43375 117.165 -14.6875 117.25 C-17.93346141 117.24425494 -18.95852884 117.02434177 -21.875 115.3125 C-24.0602671 112.93441522 -25.06234889 111.06867635 -26 108 C-27.051875 108.268125 -28.10375 108.53625 -29.1875 108.8125 C-33 109 -33 109 -35.9375 106.6875 C-38 104 -38 104 -38 102 C-38.99 102.495 -38.99 102.495 -40 103 C-46.85851319 103.68585132 -46.85851319 103.68585132 -49.859375 101.8828125 C-51.30614145 100.66339507 -52.66207025 99.33792975 -54 98 C-54.33 98.33 -54.66 98.66 -55 99 C-57.4375 99.25 -57.4375 99.25 -60 99 C-62 96 -62 96 -61.8125 93.9375 C-61 92 -61 92 -58 90 C-57.74969023 87.41619823 -57.74969023 87.41619823 -58 85 C-61.60377376 84.74857392 -63.50306771 84.69237525 -66.625 86.625 C-69 88 -69 88 -71.25 87.5625 C-73 86 -73 86 -73.875 83 C-73.91625 82.01 -73.9575 81.02 -74 80 C-73.01 79.01 -73.01 79.01 -72 78 C-71.60235737 76.01178687 -71.26224651 74.01055661 -71 72 C-71.886875 72.350625 -72.77375 72.70125 -73.6875 73.0625 C-77.07480539 74.02117134 -78.69567599 74.03850183 -82 73 C-83 72 -83 72 -83.125 69.6875 C-83 67 -83 67 -82.5 65.0625 C-81.85241792 62.86487565 -81.85241792 62.86487565 -82.25 60 C-82 57 -82 57 -79.75 54.625 C-77 53 -77 53 -73 53 C-72.71125 52.05125 -72.4225 51.1025 -72.125 50.125 C-71 47 -71 47 -69 45 C-68.360625 44.938125 -67.72125 44.87625 -67.0625 44.8125 C-64.57733624 44.11200262 -64.57733624 44.11200262 -63.5 40.625 C-63.005 39.42875 -62.51 38.2325 -62 37 C-59.0514966 34.18818218 -56.82978555 33.60049018 -52.8125 33.375 C-49.60001231 33.42972928 -49.60001231 33.42972928 -47 32 C-45.00041636 31.95919217 -42.99954746 31.95745644 -41 32 C-41.12375 30.989375 -41.2475 29.97875 -41.375 28.9375 C-40.8845983 23.78828213 -38.73068454 21.42140499 -35 18 C-31.78548731 16.39274365 -28.56387464 16.94251815 -25 17 C-24.9175 16.2575 -24.835 15.515 -24.75 14.75 C-23.79605368 11.25219683 -23.01934244 10.03805615 -20 8 C-16.22082631 7.5158354 -12.45612632 7.27193684 -9 9 C-8.67 7.35 -8.34 5.7 -8 4 C-4.535 3.505 -4.535 3.505 -1 3 C-0.67 2.01 -0.34 1.02 0 0 Z " fill="#010101" transform="translate(483,364)"/>
<path d="M0 0 C0.495 0.99 0.495 0.99 1 2 C2.63084942 2.23783221 4.26275543 2.46993894 5.8984375 2.671875 C11.34634733 3.52247802 16.33116004 4.74014163 20.0625 9 C22 12 22 12 22 15 C22.969375 15.144375 23.93875 15.28875 24.9375 15.4375 C28 16 28 16 29 17 C29.04080783 18.99958364 29.04254356 21.00045254 29 23 C30.98 23.495 30.98 23.495 33 24 C33 24.66 33 25.32 33 26 C33.87011719 25.80470703 33.87011719 25.80470703 34.7578125 25.60546875 C40.87484679 24.52539834 40.87484679 24.52539834 43.8984375 25.80078125 C47.0824885 28.18493651 47.99018534 29.95723612 48.875 33.8125 C48.91625 34.864375 48.9575 35.91625 49 37 C50.65 37.33 52.3 37.66 54 38 C54.495 40.475 54.495 40.475 55 43 C56.19625 42.7525 57.3925 42.505 58.625 42.25 C62.00103789 41.84965568 63.03838336 42.01665693 66.3125 43.4375 C69.2635255 46.2512685 70.21409414 48.27271184 71.359375 52.09765625 C72.00620614 54.29113585 72.00620614 54.29113585 74 57 C74 57.99 74 58.98 74 60 C75.32 60.33 76.64 60.66 78 61 C78 62.65 78 64.3 78 66 C77.01 66.33 76.02 66.66 75 67 C75 68.98 75 70.96 75 73 C75.99 73.33 76.98 73.66 78 74 C78.125 76.375 78.125 76.375 78 79 C77.34 79.66 76.68 80.32 76 81 C73.375 80.625 73.375 80.625 71 80 C70.67 79.01 70.34 78.02 70 77 C68.68 77.33 67.36 77.66 66 78 C65.79375 79.27875 65.5875 80.5575 65.375 81.875 C65.20097656 82.95394531 65.20097656 82.95394531 65.0234375 84.0546875 C65.01570313 84.69664062 65.00796875 85.33859375 65 86 C65.66 86.66 66.32 87.32 67 88 C67.3125 91.5 67.3125 91.5 67 95 C63.76746204 97.15502531 62.74849077 97.46856135 59 97 C57.125 95.9375 57.125 95.9375 56 94 C56.3125 90.3125 56.3125 90.3125 57 87 C55.35 87 53.7 87 52 87 C51.67 87.66 51.34 88.32 51 89 C50.34 89 49.68 89 49 89 C49.226875 90.258125 49.45375 91.51625 49.6875 92.8125 C50.14141754 96.69830925 50.14141754 96.69830925 49.0625 99 C45.76366108 100.59943705 42.63891879 100.11738448 39 100 C37.63002255 101.15745487 37.63002255 101.15745487 37.6875 104.3125 C37 108 37 108 35.375 110.375 C32.25932614 112.50677685 29.73556987 112.79246834 26 113 C25.34 112.67 24.68 112.34 24 112 C23.4225 112.928125 22.845 113.85625 22.25 114.8125 C18.40274273 120.26278114 15.31220236 121.37873802 8.92578125 122.5703125 C7.00249079 122.81879233 7.00249079 122.81879233 6 124 C2.42794068 124.40349039 0.61144527 124.42456877 -2.38279724 122.34545898 C-3.1477803 121.57016846 -3.91276337 120.79487793 -4.70092773 119.99609375 C-5.57881454 119.12098145 -6.45670135 118.24586914 -7.3611908 117.34423828 C-8.30237725 116.37569996 -9.24316829 115.40677724 -10.18359375 114.4375 C-11.16591217 113.44651539 -12.14950045 112.45678809 -13.1342926 111.46826172 C-15.72460787 108.8607259 -18.29601061 106.23526663 -20.86425781 103.60601807 C-22.94540248 101.48151622 -25.03930646 99.36985894 -27.13413906 97.25886536 C-44.37888934 79.87877549 -44.37888934 79.87877549 -50.73377991 72.47412109 C-51.46250534 71.62574605 -52.20918366 70.79081634 -53 70 C-53.13858338 67.06375265 -53.21323695 64.15281116 -53.23828125 61.21484375 C-53.246353 60.32519424 -53.25442474 59.43554474 -53.26274109 58.51893616 C-53.27660515 56.62828532 -53.28731686 54.73760921 -53.29516602 52.84692383 C-53.31228477 49.9736253 -53.35613753 47.10150564 -53.40039062 44.22851562 C-53.41052562 42.39063346 -53.41903919 40.5527415 -53.42578125 38.71484375 C-53.44328934 37.86244614 -53.46079742 37.01004852 -53.47883606 36.13182068 C-53.45118297 28.40918351 -50.93924387 22.40967565 -45.5234375 16.828125 C-40.58719749 12.15457245 -34.93661547 10.03965525 -28.625 7.75 C-27.5525 7.34265625 -26.48 6.9353125 -25.375 6.515625 C-23.26237104 5.71375124 -21.14613051 4.92131805 -19.02612305 4.13916016 C-15.34069818 2.75181103 -11.71313983 1.24138377 -8.09155273 -0.30419922 C-5.10797658 -1.29675111 -2.93070282 -1.05204717 0 0 Z " fill="#010101" transform="translate(247,363)"/>
<path d="M0 0 C0.66 0.66 1.32 1.32 2 2 C3.32 2 4.64 2 6 2 C6.474375 1.505 6.94875 1.01 7.4375 0.5 C9 -1 9 -1 11.5 -1.375 C14 -1 14 -1 15.8125 0.375 C17 2 17 2 17 4 C18.0828125 3.87625 18.0828125 3.87625 19.1875 3.75 C22.97610806 4.08676516 24.4036088 5.25936485 27 8 C27.8125 11.25 27.8125 11.25 28 14 C29.7015625 14.2165625 29.7015625 14.2165625 31.4375 14.4375 C35 15 35 15 36 16 C37.32 14.35 38.64 12.7 40 11 C42.875 11.25 42.875 11.25 46 12 C47.375 14.0625 47.375 14.0625 48 16 C49.03125 15.896875 50.0625 15.79375 51.125 15.6875 C56.25527959 16.10123222 57.57043547 17.23584381 61 21 C61.375 23.8125 61.375 23.8125 61 26 C62.051875 25.7525 63.10375 25.505 64.1875 25.25 C68 25 68 25 70.9375 26.8125 C73 29 73 29 73 31 C73.928125 30.938125 74.85625 30.87625 75.8125 30.8125 C79 31 79 31 80.9375 32.1875 C82 34 82 34 81.7890625 36.37109375 C80.86571927 39.44738085 79.75941513 40.68485696 77.4375 42.875 C76.7053125 43.57109375 75.973125 44.2671875 75.21875 44.984375 C72.66125812 47.3077303 70.0681852 49.58228857 67.44921875 51.8359375 C64.15701144 54.74484156 60.95565639 57.74632847 57.75 60.75 C52.18415689 65.96414955 46.58989874 71.14301483 40.9609375 76.2890625 C37.79744272 79.18206474 34.64824074 82.09041772 31.5 85 C26.8501666 89.29650679 22.18896906 93.58028426 17.51953125 97.85546875 C13.83790932 101.22787309 10.16705115 104.61176236 6.5 108 C-3.29185314 117.04558508 -13.12829936 126.041626 -23 135 C-23.99 134.67 -24.98 134.34 -26 134 C-25.89171875 132.51113281 -25.89171875 132.51113281 -25.78125 130.9921875 C-25.68643129 129.61986509 -25.59276773 128.24746258 -25.5 126.875 C-25.45085449 126.15666992 -25.40170898 125.43833984 -25.35107422 124.69824219 C-24.97494689 118.73524796 -25.02169036 112.86312616 -25.2578125 106.890625 C-24.96512033 103.60892493 -24.053094 102.48151741 -22 100 C-22.64108137 98.32332564 -23.31471955 96.65910004 -24 95 C-24.75160034 89.61047559 -24.74231983 85.39404067 -21.5 80.875 C-20.675 79.92625 -19.85 78.9775 -19 78 C-19.66 77.154375 -20.32 76.30875 -21 75.4375 C-23.26943101 71.53691546 -23.42630658 69.43358847 -23 65 C-22.505 64.01 -22.505 64.01 -22 63 C-22.639375 62.690625 -23.27875 62.38125 -23.9375 62.0625 C-26 61 -26 61 -27 60 C-27.27177418 55.92338727 -26.88948198 53.55667196 -25 50 C-24.855625 48.96875 -24.71125 47.9375 -24.5625 46.875 C-24.2840625 45.451875 -24.2840625 45.451875 -24 44 C-21 42 -21 42 -17.9375 42.1875 C-15 43 -15 43 -13 46 C-12.61500109 47.65549531 -12.27206865 49.3222433 -12 51 C-11.73008921 46.90638435 -11.73008921 46.90638435 -13.0078125 43.11328125 C-14.2198636 40.53170785 -14.13668039 38.76934674 -14 35.9375 C-13.81687759 32.13198741 -13.79211495 31.31182758 -16 28 C-16.32712237 25.71428423 -16.4394968 23.46135232 -16.55859375 21.15625 C-17.09301124 18.54564419 -18.0812844 17.77267163 -20 16 C-20.42822025 13.14519831 -20.40659584 11.65507108 -18.875 9.1875 C-16.22464043 7.50893894 -14.06753576 7.79549762 -11 8 C-11.12375 6.6078125 -11.12375 6.6078125 -11.25 5.1875 C-11 2 -11 2 -9.4375 0.0625 C-5.97590475 -1.44640049 -3.61452199 -0.8701627 0 0 Z " fill="#010101" transform="translate(390,460)"/>
<path d="M0 0 C0.495 0.495 0.495 0.495 1 1 C2.41091085 1.20988756 3.82965476 1.36831236 5.25 1.5 C8.55483699 1.83519741 11.75722238 2.25879369 15 3 C15.7425 3.165 16.485 3.33 17.25 3.5 C19 4 19 4 20 5 C20.23255814 9.53488372 20.23255814 9.53488372 19 12 C19.495 12.99 19.495 12.99 20 14 C20.13636096 17.0681216 20.09271518 19.6459966 19.3125 22.625 C19.209375 23.40875 19.10625 24.1925 19 25 C19.495 25.598125 19.99 26.19625 20.5 26.8125 C22.53521783 29.78052601 21.94678351 31.57254671 21.32421875 35 C20.89331974 37.32039097 20.89331974 37.32039097 21 41 C21.33 41.33 21.66 41.66 22 42 C21.71269945 44.33944736 21.38063221 46.6739143 21 49 C19.68 49.33 18.36 49.66 17 50 C17 52.97 17 55.94 17 59 C17.804375 59.144375 18.60875 59.28875 19.4375 59.4375 C22 60 22 60 23 61 C23.31923492 63.0572917 23.51161352 65.11613521 23.71875 67.1875 C23.81998043 69.0167533 23.81998043 69.0167533 25 70 C25.29386153 73.72224599 25.14809171 74.77786243 23 78 C23.639375 78.28875 24.27875 78.5775 24.9375 78.875 C27 80 27 80 28 82 C28.3493047 87.41422291 28.48433932 89.75819561 25 94 C25.29563765 95.34219494 25.63719915 96.67438149 26 98 C26.66519133 105.21896167 26.15139792 108.97377721 22 115 C22.1648025 118.31759427 22.1648025 118.31759427 22.625 120.57421875 C23.10602813 123.68586945 23.19447784 126.72758756 23.25 129.875 C23.27578125 130.98617187 23.3015625 132.09734375 23.328125 133.2421875 C23.21984375 134.15226563 23.1115625 135.06234375 23 136 C22.01 136.66 21.02 137.32 20 138 C16.70687173 134.7318517 13.41724235 131.46023304 10.13061523 128.18554688 C9.0153271 127.07524416 7.89913789 125.96584571 6.78198242 124.85742188 C5.16339038 123.2511523 3.54821928 121.64150558 1.93359375 120.03125 C1.44475204 119.54756958 0.95591034 119.06388916 0.45225525 118.56555176 C-2.18014913 115.93356163 -4.6747569 113.23790987 -7.09155273 110.40625 C-11.70367294 105.08733531 -16.7189169 100.16953238 -21.71192932 95.21290588 C-23.50632335 93.43144752 -25.29742409 91.64673362 -27.08776855 89.86120605 C-30.88902275 86.07129734 -34.69420588 82.28534903 -38.5 78.5 C-42.91534185 74.10837779 -47.32899248 69.71508274 -51.73841858 65.31752014 C-53.49049796 63.5718529 -55.24559477 61.82926048 -57.00085449 60.08679199 C-62.06782929 55.0424876 -67.06450775 49.98946283 -71.66906738 44.51086426 C-73.09559269 42.817439 -73.09559269 42.817439 -75.4375 40.9375 C-77 39 -77 39 -77.5625 35.5 C-77 32 -77 32 -75 29.5 C-70.83016273 27.41508136 -68.51757331 28.08117153 -64 29 C-63.731875 28.38125 -63.46375 27.7625 -63.1875 27.125 C-62 25 -62 25 -59 23 C-56.58984375 22.76953125 -56.58984375 22.76953125 -53.9375 22.8125 C-53.05964844 22.81894531 -52.18179687 22.82539063 -51.27734375 22.83203125 C-49 23 -49 23 -47 24 C-46.54625 23.05125 -46.0925 22.1025 -45.625 21.125 C-44 18 -44 18 -42 16 C-35.67741935 15.66129032 -35.67741935 15.66129032 -33 17 C-32.731875 16.38125 -32.46375 15.7625 -32.1875 15.125 C-31 13 -31 13 -28 11 C-25.87890625 11.12890625 -25.87890625 11.12890625 -23.5625 11.5625 C-19.99050996 12.15812461 -19.99050996 12.15812461 -16.8125 10.625 C-16.214375 10.08875 -15.61625 9.5525 -15 9 C-11.75 8.3125 -11.75 8.3125 -9 8 C-9.061875 7.071875 -9.12375 6.14375 -9.1875 5.1875 C-9 2 -9 2 -7.875 0.0625 C-5.04805609 -1.53943488 -3.05073223 -0.79584319 0 0 Z " fill="#010101" transform="translate(334,458)"/>
<path d="M0 0 C4.54991515 0.4014631 8.77938576 2.35467581 13 4 C14.33359073 10.42548263 14.33359073 10.42548263 12.875 12.9375 C10.36352369 14.36066991 8.84496772 14.42674516 6 14 C4.1875 12.625 4.1875 12.625 3 11 C3 10.34 3 9.68 3 9 C2.360625 8.855625 1.72125 8.71125 1.0625 8.5625 C-1 8 -1 8 -2 7 C-2.1875 4.5625 -2.1875 4.5625 -2 2 C-1.34 1.34 -0.68 0.68 0 0 Z " fill="#0C0C0C" transform="translate(380,403)"/>
<path d="M0 0 C2.5625 1.0625 2.5625 1.0625 4.3125 4.5625 C4.93125 6.295 4.93125 6.295 5.5625 8.0625 C5.8925 8.3925 6.2225 8.7225 6.5625 9.0625 C6.85428308 11.83443929 6.92616316 13.47659825 5.4375 15.875 C2.72804166 17.59099028 0.69954316 17.396228 -2.4375 17.0625 C-4.4375 15.0625 -4.4375 15.0625 -4.703125 12.09375 C-4.69796875 10.9284375 -4.6928125 9.763125 -4.6875 8.5625 C-4.69265625 7.3971875 -4.6978125 6.231875 -4.703125 5.03125 C-4.37419862 1.35501396 -3.82576344 0.0980965 0 0 Z " fill="#070707" transform="translate(363.4375,480.9375)"/>
<path d="M0 0 C3.375 -0.125 3.375 -0.125 7 0 C9 2 9 2 9.3125 4.9375 C9 8 9 8 7.6875 9.875 C6 11 6 11 3 11 C2.67 12.32 2.34 13.64 2 15 C0.00045254 15.04254356 -2.00041636 15.04080783 -4 15 C-5 14 -5 14 -5.1875 11.5625 C-5 9 -5 9 -3 7 C-1.96157435 4.68351201 -0.9578025 2.35096976 0 0 Z " fill="#0B0B0B" transform="translate(393,439)"/>
<path d="M0 0 C2.5625 0.3125 2.5625 0.3125 4.375 1.5 C5.98775784 3.96157776 5.9959014 5.42315736 5.5625 8.3125 C4.5625 9.3125 3.5625 10.3125 2.5625 11.3125 C2.39562552 13.89604218 2.39562552 13.89604218 2.5625 16.3125 C1.5625 17.3125 1.5625 17.3125 -0.9375 17.4375 C-3.4375 17.3125 -3.4375 17.3125 -4.4375 16.3125 C-4.48134447 14.64641013 -4.4771713 12.97869446 -4.4375 11.3125 C-4.4375 9.29123716 -4.48006811 7.26958126 -4.5625 5.25 C-4.40397237 1.5246006 -3.75192796 0.4810164 0 0 Z " fill="#0B0B0B" transform="translate(363.4375,367.6875)"/>
<path d="M0 0 C2.5625 0.125 2.5625 0.125 4.5625 1.125 C5.366875 1.08375 6.17125 1.0425 7 1 C9.5625 1.125 9.5625 1.125 11.4375 2.25 C12.5625 4.125 12.5625 4.125 12.3125 7.25 C11.5625 10.125 11.5625 10.125 10.5625 11.125 C8.22952567 11.16592937 5.89544775 11.16741723 3.5625 11.125 C3.2325 9.805 2.9025 8.485 2.5625 7.125 C1.758125 7.145625 0.95375 7.16625 0.125 7.1875 C-2.4375 7.125 -2.4375 7.125 -3.4375 6.125 C-3.5625 3.625 -3.5625 3.625 -3.4375 1.125 C-2.4375 0.125 -2.4375 0.125 0 0 Z " fill="#0C0C0C" transform="translate(325.4375,412.875)"/>
<path d="M0 0 C2.875 0.6875 2.875 0.6875 3.875 1.6875 C4.32878151 6.90598739 4.32878151 6.90598739 2.75 9.625 C0.875 10.6875 0.875 10.6875 -2.25 10.5 C-3.19875 10.231875 -4.1475 9.96375 -5.125 9.6875 C-6.51931504 6.89886993 -6.38160094 4.76671132 -6.125 1.6875 C-3.125 -0.3125 -3.125 -0.3125 0 0 Z " fill="#0B0B0B" transform="translate(324.125,394.3125)"/>
<path d="M0 0 C3 0.25 3 0.25 5 2.25 C4.625 5.875 4.625 5.875 4 9.25 C1.1875 9.875 1.1875 9.875 -2 10.25 C-2.99 9.59 -3.98 8.93 -5 8.25 C-5.3125 5.25 -5.3125 5.25 -5 2.25 C-3 0.25 -3 0.25 0 0 Z " fill="#090909" transform="translate(354,445.75)"/>
<path d="M0 0 C4.55555556 0.55555556 4.55555556 0.55555556 6 2 C6.1875 4.4375 6.1875 4.4375 6 7 C5.34 7.66 4.68 8.32 4 9 C1.375 8.625 1.375 8.625 -1 8 C-1.625 5.125 -1.625 5.125 -2 2 C-1.34 1.34 -0.68 0.68 0 0 Z " fill="#141414" transform="translate(322,446)"/>
<path d="M0 0 C2.625 0.375 2.625 0.375 5 1 C5.125 3.375 5.125 3.375 5 6 C4.34 6.66 3.68 7.32 3 8 C0.875 7.625 0.875 7.625 -1 7 C-1.625 4.625 -1.625 4.625 -2 2 C-1.34 1.34 -0.68 0.68 0 0 Z " fill="#121212" transform="translate(355,390)"/>
</svg>
